<?xml version="1.0" encoding="utf-8"?>
<!-- Generator: Adobe Illustrator 16.0.3, SVG Export Plug-In . SVG Version: 6.00 Build 0)  -->
<!DOCTYPE svg PUBLIC "-//W3C//DTD SVG 1.1//EN" "http://www.w3.org/Graphics/SVG/1.1/DTD/svg11.dtd">
<svg version="1.1" id="Layer_1" xmlns="http://www.w3.org/2000/svg" xmlns:xlink="http://www.w3.org/1999/xlink" x="0px" y="0px"
	 width="612px" height="792px" viewBox="0 0 612 792" enable-background="new 0 0 612 792" xml:space="preserve">
<path fill="#6AB500" d="M317.028,461.854c-9.467-0.478-17.212,7.3-16.734,16.734c0.415,8.097,6.981,14.663,15.077,15.077
	c9.467,0.479,17.213-7.3,16.734-16.734C331.691,468.834,325.125,462.269,317.028,461.854z M316.934,488.979
	c-6.79,0.414-12.4-5.164-11.954-11.953c0.351-5.61,4.909-10.137,10.487-10.487c6.789-0.414,12.399,5.164,11.953,11.953
	C327.069,484.103,322.543,488.629,316.934,488.979z"/>
<path fill="#6AB500" d="M519.945,332.25c-9.467-0.478-17.213,7.299-16.734,16.734c0.414,8.096,6.98,14.663,15.076,15.077
	c9.467,0.479,17.213-7.299,16.734-16.734C534.607,339.263,528.041,332.665,519.945,332.25z M519.85,359.408
	c-6.79,0.414-12.399-5.164-11.953-11.953c0.351-5.61,4.908-10.136,10.486-10.487c6.79-0.415,12.399,5.164,11.953,11.953
	C529.985,354.499,525.428,359.057,519.85,359.408z"/>
<path fill="#6AB500" d="M395.888,468.834l59.925-65.024l149.175,118.256H463.144L395.888,468.834z"/>
<path fill="#6AB500" d="M426.807,392.972c24.479,0,44.306,19.826,44.306,44.307c0,24.479-19.826,44.306-44.306,44.306
	c-24.48,0-44.307-19.826-44.307-44.306C382.5,412.798,402.326,392.972,426.807,392.972z"/>
<path fill="#6AB500" d="M-2.773,372.604L82.62,482.35c6.502,8.351,4.972,20.368-3.347,26.839l-104.646,81.377l-97.091-124.823
	L-2.773,372.604z"/>
<path fill="#6AB500" d="M81.568,309.555l5.546,20.655c0.319,1.243,1.977,1.498,2.678,0.415l7.746-12.081
	c0.446-0.702,0.255-1.594-0.446-2.04l-13.292-8.542C82.652,307.196,81.217,308.248,81.568,309.555z"/>
</svg>
